<mxfile host="65bd71144e">
    <diagram id="GVfcc4X-1fCjgc7uryO1" name="Page-1">
        <mxGraphModel dx="1158" dy="706" grid="1" gridSize="10" guides="1" tooltips="1" connect="1" arrows="1" fold="1" page="1" pageScale="1" pageWidth="850" pageHeight="1100" math="0" shadow="0">
            <root>
                <mxCell id="0"/>
                <mxCell id="1" parent="0"/>
                <mxCell id="14" value="HISTORICO" style="rounded=0;whiteSpace=wrap;html=1;" vertex="1" parent="1">
                    <mxGeometry x="460" y="955" width="110" height="40" as="geometry"/>
                </mxCell>
                <mxCell id="22" value="CELAS" style="rounded=0;whiteSpace=wrap;html=1;" vertex="1" parent="1">
                    <mxGeometry x="660" y="955" width="110" height="40" as="geometry"/>
                </mxCell>
                <mxCell id="24" value="EVIDENCIAS_&lt;br&gt;CRIMINAIS" style="rounded=0;whiteSpace=wrap;html=1;" vertex="1" parent="1">
                    <mxGeometry x="870.23" y="955" width="110" height="40" as="geometry"/>
                </mxCell>
                <mxCell id="25" value="REGISTRO_&lt;br&gt;TESTEMUNHA" style="rounded=0;whiteSpace=wrap;html=1;" vertex="1" parent="1">
                    <mxGeometry x="1070.23" y="955" width="110" height="40" as="geometry"/>
                </mxCell>
                <mxCell id="26" value="CONTROLE_&lt;br&gt;PATRULHA" style="rounded=0;whiteSpace=wrap;html=1;" vertex="1" parent="1">
                    <mxGeometry x="1255.23" y="955" width="110" height="40" as="geometry"/>
                </mxCell>
                <mxCell id="10" value="FUNCIONARIO" style="rounded=0;whiteSpace=wrap;html=1;" vertex="1" parent="1">
                    <mxGeometry x="787.73" y="265" width="110" height="40" as="geometry"/>
                </mxCell>
                <mxCell id="11" value="VEICULO" style="rounded=0;whiteSpace=wrap;html=1;" vertex="1" parent="1">
                    <mxGeometry x="1280" y="265" width="110" height="40" as="geometry"/>
                </mxCell>
                <mxCell id="12" value="CARRO" style="rounded=0;whiteSpace=wrap;html=1;" vertex="1" parent="1">
                    <mxGeometry x="1190" y="445" width="110" height="40" as="geometry"/>
                </mxCell>
                <mxCell id="13" value="MOTO" style="rounded=0;whiteSpace=wrap;html=1;" vertex="1" parent="1">
                    <mxGeometry x="1390" y="445" width="110" height="40" as="geometry"/>
                </mxCell>
                <mxCell id="15" value="EQUIPAMENTO" style="rounded=0;whiteSpace=wrap;html=1;" vertex="1" parent="1">
                    <mxGeometry x="787.73" y="535" width="110" height="40" as="geometry"/>
                </mxCell>
                <mxCell id="16" value="ESCUDO" style="rounded=0;whiteSpace=wrap;html=1;" vertex="1" parent="1">
                    <mxGeometry x="530" y="745" width="110" height="40" as="geometry"/>
                </mxCell>
                <mxCell id="17" value="ARMA_DE_FOGO&lt;span style=&quot;color: rgba(0, 0, 0, 0); font-family: monospace; font-size: 0px; text-align: start;&quot;&gt;%3CmxGraphModel%3E%3Croot%3E%3CmxCell%20id%3D%220%22%2F%3E%3CmxCell%20id%3D%221%22%20parent%3D%220%22%2F%3E%3CmxCell%20id%3D%222%22%20value%3D%22ESCUDO%22%20style%3D%22rounded%3D0%3BwhiteSpace%3Dwrap%3Bhtml%3D1%3B%22%20vertex%3D%221%22%20parent%3D%221%22%3E%3CmxGeometry%20x%3D%22250%22%20y%3D%22420%22%20width%3D%22110%22%20height%3D%2240%22%20as%3D%22geometry%22%2F%3E%3C%2FmxCell%3E%3C%2Froot%3E%3C%2FmxGraphModel%3E&lt;/span&gt;" style="rounded=0;whiteSpace=wrap;html=1;" vertex="1" parent="1">
                    <mxGeometry x="657.73" y="745" width="110" height="40" as="geometry"/>
                </mxCell>
                <mxCell id="18" value="ARMA_DE_&lt;br&gt;CHOQUE" style="rounded=0;whiteSpace=wrap;html=1;" vertex="1" parent="1">
                    <mxGeometry x="787.73" y="745" width="110" height="40" as="geometry"/>
                </mxCell>
                <mxCell id="19" value="CASSETETE" style="rounded=0;whiteSpace=wrap;html=1;" vertex="1" parent="1">
                    <mxGeometry x="1047.73" y="745" width="110" height="40" as="geometry"/>
                </mxCell>
                <mxCell id="20" value="BOMBA" style="rounded=0;whiteSpace=wrap;html=1;" vertex="1" parent="1">
                    <mxGeometry x="917.73" y="745" width="110" height="40" as="geometry"/>
                </mxCell>
                <mxCell id="21" value="BO" style="rounded=0;whiteSpace=wrap;html=1;" vertex="1" parent="1">
                    <mxGeometry x="440.26" y="140" width="110" height="40" as="geometry"/>
                </mxCell>
                <mxCell id="27" value="APREENSÃƒO&lt;span style=&quot;color: rgba(0, 0, 0, 0); font-family: monospace; font-size: 0px; text-align: start;&quot;&gt;%3CmxGraphModel%3E%3Croot%3E%3CmxCell%20id%3D%220%22%2F%3E%3CmxCell%20id%3D%221%22%20parent%3D%220%22%2F%3E%3CmxCell%20id%3D%222%22%20value%3D%22CONTROLE_%26lt%3Bbr%26gt%3BPATRULHA%22%20style%3D%22rounded%3D0%3BwhiteSpace%3Dwrap%3Bhtml%3D1%3B%22%20vertex%3D%221%22%20parent%3D%221%22%3E%3CmxGeometry%20x%3D%22250%22%20y%3D%22960%22%20width%3D%22110%22%20height%3D%2240%22%20as%3D%22geometry%22%2F%3E%3C%2FmxCell%3E%3C%2Froot%3E%3C%2FmxGraphModel%3E&lt;/span&gt;" style="rounded=0;whiteSpace=wrap;html=1;" vertex="1" parent="1">
                    <mxGeometry x="370.26" y="405" width="110" height="40" as="geometry"/>
                </mxCell>
                <mxCell id="28" value="MULTA" style="rounded=0;whiteSpace=wrap;html=1;" vertex="1" parent="1">
                    <mxGeometry x="370.26" y="275" width="110" height="40" as="geometry"/>
                </mxCell>
                <mxCell id="29" value="d" style="ellipse;whiteSpace=wrap;html=1;aspect=fixed;" vertex="1" parent="1">
                    <mxGeometry x="817.73" y="630" width="50" height="50" as="geometry"/>
                </mxCell>
                <mxCell id="30" value="" style="endArrow=none;html=1;" edge="1" parent="1" source="15" target="29">
                    <mxGeometry width="50" height="50" relative="1" as="geometry">
                        <mxPoint x="787.73" y="664.5" as="sourcePoint"/>
                        <mxPoint x="697.73" y="664.5" as="targetPoint"/>
                    </mxGeometry>
                </mxCell>
                <mxCell id="37" value="" style="endArrow=none;html=1;" edge="1" parent="1" source="19" target="29">
                    <mxGeometry width="50" height="50" relative="1" as="geometry">
                        <mxPoint x="959.0936363636365" y="755" as="sourcePoint"/>
                        <mxPoint x="871.8146571342004" y="681.1485560366309" as="targetPoint"/>
                    </mxGeometry>
                </mxCell>
                <mxCell id="38" value="U" style="edgeLabel;html=1;align=center;verticalAlign=middle;resizable=0;points=[];fontSize=29;rotation=-65;labelBackgroundColor=none;" vertex="1" connectable="0" parent="37">
                    <mxGeometry x="0.1005" y="3" relative="1" as="geometry">
                        <mxPoint x="8" as="offset"/>
                    </mxGeometry>
                </mxCell>
                <mxCell id="44" value="" style="endArrow=none;html=1;" edge="1" parent="1" source="20" target="29">
                    <mxGeometry width="50" height="50" relative="1" as="geometry">
                        <mxPoint x="1065.4572727272725" y="755" as="sourcePoint"/>
                        <mxPoint x="875.7541812767313" y="674.7409997709246" as="targetPoint"/>
                    </mxGeometry>
                </mxCell>
                <mxCell id="45" value="U" style="edgeLabel;html=1;align=center;verticalAlign=middle;resizable=0;points=[];fontSize=29;rotation=-45;labelBackgroundColor=none;" vertex="1" connectable="0" parent="44">
                    <mxGeometry x="0.1005" y="3" relative="1" as="geometry">
                        <mxPoint x="8" y="8" as="offset"/>
                    </mxGeometry>
                </mxCell>
                <mxCell id="46" value="" style="endArrow=none;html=1;" edge="1" parent="1" source="18" target="29">
                    <mxGeometry width="50" height="50" relative="1" as="geometry">
                        <mxPoint x="1075.4572727272725" y="765" as="sourcePoint"/>
                        <mxPoint x="885.7541812767313" y="684.7409997709246" as="targetPoint"/>
                    </mxGeometry>
                </mxCell>
                <mxCell id="47" value="U" style="edgeLabel;html=1;align=center;verticalAlign=middle;resizable=0;points=[];fontSize=29;rotation=0;labelBackgroundColor=none;" vertex="1" connectable="0" parent="46">
                    <mxGeometry x="0.1005" y="3" relative="1" as="geometry">
                        <mxPoint x="3" as="offset"/>
                    </mxGeometry>
                </mxCell>
                <mxCell id="48" value="" style="endArrow=none;html=1;" edge="1" parent="1" source="17" target="29">
                    <mxGeometry width="50" height="50" relative="1" as="geometry">
                        <mxPoint x="1085.4572727272725" y="775" as="sourcePoint"/>
                        <mxPoint x="895.7541812767313" y="694.7409997709246" as="targetPoint"/>
                    </mxGeometry>
                </mxCell>
                <mxCell id="49" value="U" style="edgeLabel;html=1;align=center;verticalAlign=middle;resizable=0;points=[];fontSize=29;rotation=46;labelBackgroundColor=none;" vertex="1" connectable="0" parent="48">
                    <mxGeometry x="0.1005" y="3" relative="1" as="geometry">
                        <mxPoint x="8" as="offset"/>
                    </mxGeometry>
                </mxCell>
                <mxCell id="50" value="" style="endArrow=none;html=1;" edge="1" parent="1" source="29" target="16">
                    <mxGeometry width="50" height="50" relative="1" as="geometry">
                        <mxPoint x="1095.4572727272725" y="785" as="sourcePoint"/>
                        <mxPoint x="630.0027272727275" y="745" as="targetPoint"/>
                    </mxGeometry>
                </mxCell>
                <mxCell id="51" value="U" style="edgeLabel;html=1;align=center;verticalAlign=middle;resizable=0;points=[];fontSize=29;rotation=60;labelBackgroundColor=none;" vertex="1" connectable="0" parent="50">
                    <mxGeometry x="0.1005" y="3" relative="1" as="geometry">
                        <mxPoint x="8" y="-7" as="offset"/>
                    </mxGeometry>
                </mxCell>
                <mxCell id="52" value="d" style="ellipse;whiteSpace=wrap;html=1;aspect=fixed;" vertex="1" parent="1">
                    <mxGeometry x="1310" y="345" width="50" height="50" as="geometry"/>
                </mxCell>
                <mxCell id="53" value="" style="endArrow=none;html=1;" edge="1" parent="1" source="13" target="52">
                    <mxGeometry width="50" height="50" relative="1" as="geometry">
                        <mxPoint x="1327.7272727272727" y="5" as="sourcePoint"/>
                        <mxPoint x="1138.0241812767117" y="-75.25900022908354" as="targetPoint"/>
                    </mxGeometry>
                </mxCell>
                <mxCell id="54" value="U" style="edgeLabel;html=1;align=center;verticalAlign=middle;resizable=0;points=[];fontSize=29;rotation=-50;labelBackgroundColor=none;" vertex="1" connectable="0" parent="53">
                    <mxGeometry x="0.1005" y="3" relative="1" as="geometry">
                        <mxPoint x="4" y="1" as="offset"/>
                    </mxGeometry>
                </mxCell>
                <mxCell id="55" value="" style="endArrow=none;html=1;" edge="1" parent="1" source="12" target="52">
                    <mxGeometry width="50" height="50" relative="1" as="geometry">
                        <mxPoint x="1439.7368421052633" y="455" as="sourcePoint"/>
                        <mxPoint x="1364.6011456115252" y="395.51757360912416" as="targetPoint"/>
                    </mxGeometry>
                </mxCell>
                <mxCell id="56" value="U" style="edgeLabel;html=1;align=center;verticalAlign=middle;resizable=0;points=[];fontSize=29;rotation=43;labelBackgroundColor=none;" vertex="1" connectable="0" parent="55">
                    <mxGeometry x="0.1005" y="3" relative="1" as="geometry">
                        <mxPoint x="4" y="1" as="offset"/>
                    </mxGeometry>
                </mxCell>
                <mxCell id="57" value="" style="endArrow=none;html=1;" edge="1" parent="1" source="11" target="52">
                    <mxGeometry width="50" height="50" relative="1" as="geometry">
                        <mxPoint x="1115" y="-145" as="sourcePoint"/>
                        <mxPoint x="1115" y="-90" as="targetPoint"/>
                    </mxGeometry>
                </mxCell>
                <mxCell id="58" value="responsavel" style="rhombus;whiteSpace=wrap;html=1;" vertex="1" parent="1">
                    <mxGeometry x="792.73" y="385" width="100" height="70" as="geometry"/>
                </mxCell>
                <mxCell id="59" value="" style="endArrow=none;html=1;" edge="1" parent="1" source="15" target="58">
                    <mxGeometry width="50" height="50" relative="1" as="geometry">
                        <mxPoint x="852.73" y="585" as="sourcePoint"/>
                        <mxPoint x="852.73" y="640" as="targetPoint"/>
                    </mxGeometry>
                </mxCell>
                <mxCell id="102" value="0,N" style="edgeLabel;html=1;align=center;verticalAlign=middle;resizable=0;points=[];fontSize=11;" vertex="1" connectable="0" parent="59">
                    <mxGeometry x="-0.6481" y="1" relative="1" as="geometry">
                        <mxPoint x="14" as="offset"/>
                    </mxGeometry>
                </mxCell>
                <mxCell id="60" value="" style="endArrow=none;html=1;" edge="1" parent="1" source="10" target="58">
                    <mxGeometry width="50" height="50" relative="1" as="geometry">
                        <mxPoint x="862.73" y="595" as="sourcePoint"/>
                        <mxPoint x="862.73" y="650" as="targetPoint"/>
                    </mxGeometry>
                </mxCell>
                <mxCell id="101" value="1,1" style="edgeLabel;html=1;align=center;verticalAlign=middle;resizable=0;points=[];fontSize=11;" vertex="1" connectable="0" parent="60">
                    <mxGeometry x="-0.6788" y="-2" relative="1" as="geometry">
                        <mxPoint x="15" y="57" as="offset"/>
                    </mxGeometry>
                </mxCell>
                <mxCell id="61" value="responsavel" style="rhombus;whiteSpace=wrap;html=1;" vertex="1" parent="1">
                    <mxGeometry x="1090" y="250" width="100" height="70" as="geometry"/>
                </mxCell>
                <mxCell id="62" value="" style="endArrow=none;html=1;" edge="1" parent="1" source="61" target="10">
                    <mxGeometry width="50" height="50" relative="1" as="geometry">
                        <mxPoint x="852.73" y="315" as="sourcePoint"/>
                        <mxPoint x="852.73" y="395" as="targetPoint"/>
                    </mxGeometry>
                </mxCell>
                <mxCell id="100" value="1,1" style="edgeLabel;html=1;align=center;verticalAlign=middle;resizable=0;points=[];fontSize=11;" vertex="1" connectable="0" parent="62">
                    <mxGeometry x="0.5273" y="-1" relative="1" as="geometry">
                        <mxPoint x="137" y="-9" as="offset"/>
                    </mxGeometry>
                </mxCell>
                <mxCell id="63" value="" style="endArrow=none;html=1;" edge="1" parent="1" source="11" target="61">
                    <mxGeometry width="50" height="50" relative="1" as="geometry">
                        <mxPoint x="955" y="325" as="sourcePoint"/>
                        <mxPoint x="955" y="405" as="targetPoint"/>
                    </mxGeometry>
                </mxCell>
                <mxCell id="99" value="0,N" style="edgeLabel;html=1;align=center;verticalAlign=middle;resizable=0;points=[];fontSize=11;" vertex="1" connectable="0" parent="63">
                    <mxGeometry x="-0.5509" y="2" relative="1" as="geometry">
                        <mxPoint y="-12" as="offset"/>
                    </mxGeometry>
                </mxCell>
                <mxCell id="65" value="d" style="ellipse;whiteSpace=wrap;html=1;aspect=fixed;" vertex="1" parent="1">
                    <mxGeometry x="957.73" y="345" width="50" height="50" as="geometry"/>
                </mxCell>
                <mxCell id="66" value="DELAGADO" style="rounded=0;whiteSpace=wrap;html=1;" vertex="1" parent="1">
                    <mxGeometry x="942.73" y="495" width="110" height="40" as="geometry"/>
                </mxCell>
                <mxCell id="67" value="POLICIAL" style="rounded=0;whiteSpace=wrap;html=1;" vertex="1" parent="1">
                    <mxGeometry x="1070.23" y="395" width="110" height="40" as="geometry"/>
                </mxCell>
                <mxCell id="68" value="" style="endArrow=none;html=1;" edge="1" parent="1" source="66" target="65">
                    <mxGeometry width="50" height="50" relative="1" as="geometry">
                        <mxPoint x="1301.6887883876134" y="475" as="sourcePoint"/>
                        <mxPoint x="1355.5595172464537" y="418.1707050498694" as="targetPoint"/>
                    </mxGeometry>
                </mxCell>
                <mxCell id="69" value="U" style="edgeLabel;html=1;align=center;verticalAlign=middle;resizable=0;points=[];fontSize=29;rotation=-7;labelBackgroundColor=none;" vertex="1" connectable="0" parent="68">
                    <mxGeometry x="0.1005" y="3" relative="1" as="geometry">
                        <mxPoint x="3" y="-10" as="offset"/>
                    </mxGeometry>
                </mxCell>
                <mxCell id="70" value="" style="endArrow=none;html=1;" edge="1" parent="1" source="65" target="67">
                    <mxGeometry width="50" height="50" relative="1" as="geometry">
                        <mxPoint x="1311.6887883876134" y="485" as="sourcePoint"/>
                        <mxPoint x="1365.5595172464537" y="428.1707050498694" as="targetPoint"/>
                    </mxGeometry>
                </mxCell>
                <mxCell id="71" value="U" style="edgeLabel;html=1;align=center;verticalAlign=middle;resizable=0;points=[];fontSize=29;rotation=-75;labelBackgroundColor=none;" vertex="1" connectable="0" parent="70">
                    <mxGeometry x="0.1005" y="3" relative="1" as="geometry">
                        <mxPoint x="-8" y="1" as="offset"/>
                    </mxGeometry>
                </mxCell>
                <mxCell id="73" value="" style="endArrow=none;html=1;" edge="1" parent="1" source="65" target="10">
                    <mxGeometry width="50" height="50" relative="1" as="geometry">
                        <mxPoint x="852.73" y="315" as="sourcePoint"/>
                        <mxPoint x="847.73" y="275" as="targetPoint"/>
                    </mxGeometry>
                </mxCell>
                <mxCell id="74" value="registra" style="rhombus;whiteSpace=wrap;html=1;" vertex="1" parent="1">
                    <mxGeometry x="600" y="150" width="100" height="70" as="geometry"/>
                </mxCell>
                <mxCell id="75" value="" style="endArrow=none;html=1;" edge="1" parent="1" source="10" target="74">
                    <mxGeometry width="50" height="50" relative="1" as="geometry">
                        <mxPoint x="852.7300000000002" y="235" as="sourcePoint"/>
                        <mxPoint x="852.7300000000002" y="275" as="targetPoint"/>
                    </mxGeometry>
                </mxCell>
                <mxCell id="92" value="1,1" style="edgeLabel;html=1;align=center;verticalAlign=middle;resizable=0;points=[];fontSize=11;" vertex="1" connectable="0" parent="75">
                    <mxGeometry x="-0.5498" y="1" relative="1" as="geometry">
                        <mxPoint x="-55" y="-56" as="offset"/>
                    </mxGeometry>
                </mxCell>
                <mxCell id="76" value="" style="endArrow=none;html=1;" edge="1" parent="1" source="21" target="74">
                    <mxGeometry width="50" height="50" relative="1" as="geometry">
                        <mxPoint x="560.0000000000002" y="-65" as="sourcePoint"/>
                        <mxPoint x="560.0000000000002" y="-135" as="targetPoint"/>
                    </mxGeometry>
                </mxCell>
                <mxCell id="91" value="&lt;font style=&quot;font-size: 11px;&quot;&gt;0,N&lt;/font&gt;" style="edgeLabel;html=1;align=center;verticalAlign=middle;resizable=0;points=[];fontSize=12;" vertex="1" connectable="0" parent="76">
                    <mxGeometry x="-0.6219" relative="1" as="geometry">
                        <mxPoint x="18" as="offset"/>
                    </mxGeometry>
                </mxCell>
                <mxCell id="77" value="aplica" style="rhombus;whiteSpace=wrap;html=1;" vertex="1" parent="1">
                    <mxGeometry x="570" y="235" width="100" height="70" as="geometry"/>
                </mxCell>
                <mxCell id="78" value="realiza" style="rhombus;whiteSpace=wrap;html=1;" vertex="1" parent="1">
                    <mxGeometry x="590" y="335" width="100" height="70" as="geometry"/>
                </mxCell>
                <mxCell id="79" value="" style="endArrow=none;html=1;" edge="1" parent="1" source="10" target="77">
                    <mxGeometry width="50" height="50" relative="1" as="geometry">
                        <mxPoint x="835.3131578947368" y="275" as="sourcePoint"/>
                        <mxPoint x="788.9361785613853" y="221.74467500703008" as="targetPoint"/>
                    </mxGeometry>
                </mxCell>
                <mxCell id="94" value="1,1" style="edgeLabel;html=1;align=center;verticalAlign=middle;resizable=0;points=[];fontSize=11;" vertex="1" connectable="0" parent="79">
                    <mxGeometry x="-0.7477" y="3" relative="1" as="geometry">
                        <mxPoint x="-82" y="-28" as="offset"/>
                    </mxGeometry>
                </mxCell>
                <mxCell id="80" value="" style="endArrow=none;html=1;" edge="1" parent="1" source="10" target="78">
                    <mxGeometry width="50" height="50" relative="1" as="geometry">
                        <mxPoint x="797.73" y="278.4572251106431" as="sourcePoint"/>
                        <mxPoint x="654.9728007693925" y="235.5190394614251" as="targetPoint"/>
                    </mxGeometry>
                </mxCell>
                <mxCell id="98" value="1,1" style="edgeLabel;html=1;align=center;verticalAlign=middle;resizable=0;points=[];fontSize=11;" vertex="1" connectable="0" parent="80">
                    <mxGeometry x="-0.7318" y="-2" relative="1" as="geometry">
                        <mxPoint x="-90" y="25" as="offset"/>
                    </mxGeometry>
                </mxCell>
                <mxCell id="81" value="" style="endArrow=none;html=1;" edge="1" parent="1" source="77" target="28">
                    <mxGeometry width="50" height="50" relative="1" as="geometry">
                        <mxPoint x="757.73" y="284.06356857413584" as="sourcePoint"/>
                        <mxPoint x="610.4721524836716" y="308.3305067385702" as="targetPoint"/>
                    </mxGeometry>
                </mxCell>
                <mxCell id="93" value="0,N" style="edgeLabel;html=1;align=center;verticalAlign=middle;resizable=0;points=[];fontSize=11;" vertex="1" connectable="0" parent="81">
                    <mxGeometry x="0.6468" y="-1" relative="1" as="geometry">
                        <mxPoint x="12" y="-5" as="offset"/>
                    </mxGeometry>
                </mxCell>
                <mxCell id="82" value="" style="endArrow=none;html=1;" edge="1" parent="1" source="78" target="27">
                    <mxGeometry width="50" height="50" relative="1" as="geometry">
                        <mxPoint x="797.73" y="304.06356857413584" as="sourcePoint"/>
                        <mxPoint x="650.4721524836716" y="328.3305067385702" as="targetPoint"/>
                    </mxGeometry>
                </mxCell>
                <mxCell id="96" value="0,N" style="edgeLabel;html=1;align=center;verticalAlign=middle;resizable=0;points=[];fontSize=11;" vertex="1" connectable="0" parent="82">
                    <mxGeometry x="0.6723" y="1" relative="1" as="geometry">
                        <mxPoint x="9" y="12" as="offset"/>
                    </mxGeometry>
                </mxCell>
                <mxCell id="83" value="Quantidade" style="ellipse;whiteSpace=wrap;html=1;rotation=0;" vertex="1" parent="1">
                    <mxGeometry x="400.26" y="490" width="80" height="40" as="geometry"/>
                </mxCell>
                <mxCell id="84" value="Material" style="ellipse;whiteSpace=wrap;html=1;rotation=0;" vertex="1" parent="1">
                    <mxGeometry x="360.26" y="345" width="80" height="40" as="geometry"/>
                </mxCell>
                <mxCell id="87" value="" style="endArrow=none;html=1;" edge="1" parent="1" source="27" target="83">
                    <mxGeometry width="50" height="50" relative="1" as="geometry">
                        <mxPoint x="611.0933333333335" y="420.41666666666674" as="sourcePoint"/>
                        <mxPoint x="578.5442712474617" y="404.14213562373084" as="targetPoint"/>
                    </mxGeometry>
                </mxCell>
                <mxCell id="89" value="" style="endArrow=none;html=1;" edge="1" parent="1" source="27" target="84">
                    <mxGeometry width="50" height="50" relative="1" as="geometry">
                        <mxPoint x="611.0933333333335" y="420.41666666666674" as="sourcePoint"/>
                        <mxPoint x="578.5442712474617" y="404.14213562373084" as="targetPoint"/>
                    </mxGeometry>
                </mxCell>
                <mxCell id="103" value="&lt;u&gt;Id_funcionario&lt;/u&gt;" style="ellipse;whiteSpace=wrap;html=1;rotation=0;" vertex="1" parent="1">
                    <mxGeometry x="730" y="345" width="80" height="40" as="geometry"/>
                </mxCell>
                <mxCell id="104" value="Nome" style="ellipse;whiteSpace=wrap;html=1;rotation=0;" vertex="1" parent="1">
                    <mxGeometry x="1030" y="140" width="80" height="40" as="geometry"/>
                </mxCell>
                <mxCell id="105" value="EndereÃ§o" style="ellipse;whiteSpace=wrap;html=1;rotation=0;" vertex="1" parent="1">
                    <mxGeometry x="950" y="100" width="80" height="40" as="geometry"/>
                </mxCell>
                <mxCell id="107" value="Telefone" style="ellipse;shape=doubleEllipse;whiteSpace=wrap;html=1;" vertex="1" parent="1">
                    <mxGeometry x="847.73" y="90" width="95" height="50" as="geometry"/>
                </mxCell>
                <mxCell id="108" value="Data_&lt;br&gt;nascimento" style="ellipse;whiteSpace=wrap;html=1;rotation=0;" vertex="1" parent="1">
                    <mxGeometry x="990.23" y="225" width="80" height="40" as="geometry"/>
                </mxCell>
                <mxCell id="109" value="Salario" style="ellipse;whiteSpace=wrap;html=1;rotation=0;" vertex="1" parent="1">
                    <mxGeometry x="780" y="130" width="80" height="40" as="geometry"/>
                </mxCell>
                <mxCell id="112" value="" style="endArrow=none;html=1;" edge="1" parent="1" source="10" target="109">
                    <mxGeometry width="50" height="50" relative="1" as="geometry">
                        <mxPoint x="880" y="214.49" as="sourcePoint"/>
                        <mxPoint x="790" y="214.49" as="targetPoint"/>
                    </mxGeometry>
                </mxCell>
                <mxCell id="113" value="" style="endArrow=none;html=1;" edge="1" parent="1" source="10" target="107">
                    <mxGeometry width="50" height="50" relative="1" as="geometry">
                        <mxPoint x="843.7647319487426" y="275" as="sourcePoint"/>
                        <mxPoint x="798.7226340658954" y="174.5186811474548" as="targetPoint"/>
                    </mxGeometry>
                </mxCell>
                <mxCell id="114" value="" style="endArrow=none;html=1;" edge="1" parent="1" source="10" target="103">
                    <mxGeometry width="50" height="50" relative="1" as="geometry">
                        <mxPoint x="853.7647319487426" y="285" as="sourcePoint"/>
                        <mxPoint x="808.7226340658954" y="184.5186811474548" as="targetPoint"/>
                    </mxGeometry>
                </mxCell>
                <mxCell id="115" value="" style="endArrow=none;html=1;" edge="1" parent="1" source="10" target="104">
                    <mxGeometry width="50" height="50" relative="1" as="geometry">
                        <mxPoint x="863.7647319487426" y="295" as="sourcePoint"/>
                        <mxPoint x="818.7226340658954" y="194.5186811474548" as="targetPoint"/>
                    </mxGeometry>
                </mxCell>
                <mxCell id="117" value="" style="endArrow=none;html=1;" edge="1" parent="1" source="105" target="10">
                    <mxGeometry width="50" height="50" relative="1" as="geometry">
                        <mxPoint x="883.7647319487426" y="315" as="sourcePoint"/>
                        <mxPoint x="838.7226340658954" y="214.5186811474548" as="targetPoint"/>
                    </mxGeometry>
                </mxCell>
                <mxCell id="118" value="" style="endArrow=none;html=1;" edge="1" parent="1" source="10" target="108">
                    <mxGeometry width="50" height="50" relative="1" as="geometry">
                        <mxPoint x="857.5609926939451" y="275" as="sourcePoint"/>
                        <mxPoint x="886.5938120785545" y="154.805989270071" as="targetPoint"/>
                    </mxGeometry>
                </mxCell>
                <mxCell id="119" value="&lt;u&gt;Id_veiculo&lt;/u&gt;" style="ellipse;whiteSpace=wrap;html=1;rotation=0;" vertex="1" parent="1">
                    <mxGeometry x="1295" y="180" width="80" height="40" as="geometry"/>
                </mxCell>
                <mxCell id="120" value="GPS" style="ellipse;whiteSpace=wrap;html=1;rotation=0;" vertex="1" parent="1">
                    <mxGeometry x="1190" y="335" width="80" height="40" as="geometry"/>
                </mxCell>
                <mxCell id="121" value="" style="endArrow=none;html=1;" edge="1" parent="1" source="11" target="120">
                    <mxGeometry width="50" height="50" relative="1" as="geometry">
                        <mxPoint x="1345" y="315" as="sourcePoint"/>
                        <mxPoint x="1345" y="355" as="targetPoint"/>
                    </mxGeometry>
                </mxCell>
                <mxCell id="122" value="" style="endArrow=none;html=1;" edge="1" parent="1" source="119" target="11">
                    <mxGeometry width="50" height="50" relative="1" as="geometry">
                        <mxPoint x="1355" y="325" as="sourcePoint"/>
                        <mxPoint x="1355" y="365" as="targetPoint"/>
                    </mxGeometry>
                </mxCell>
                <mxCell id="123" value="&lt;u&gt;Id_historico&lt;/u&gt;" style="ellipse;whiteSpace=wrap;html=1;rotation=0;" vertex="1" parent="1">
                    <mxGeometry x="350" y="1005" width="80" height="40" as="geometry"/>
                </mxCell>
                <mxCell id="124" value="Nome" style="ellipse;whiteSpace=wrap;html=1;rotation=0;" vertex="1" parent="1">
                    <mxGeometry x="445" y="1045" width="80" height="40" as="geometry"/>
                </mxCell>
                <mxCell id="125" value="CPF" style="ellipse;whiteSpace=wrap;html=1;rotation=0;" vertex="1" parent="1">
                    <mxGeometry x="320" y="935" width="80" height="40" as="geometry"/>
                </mxCell>
                <mxCell id="126" value="Delito_&lt;br&gt;cometido" style="ellipse;whiteSpace=wrap;html=1;rotation=0;" vertex="1" parent="1">
                    <mxGeometry x="330" y="885" width="80" height="40" as="geometry"/>
                </mxCell>
                <mxCell id="127" value="Data_ocorrido" style="ellipse;whiteSpace=wrap;html=1;rotation=0;" vertex="1" parent="1">
                    <mxGeometry x="390" y="845" width="80" height="40" as="geometry"/>
                </mxCell>
                <mxCell id="128" value="SituaÃ§Ã£o_&lt;br&gt;atual" style="ellipse;whiteSpace=wrap;html=1;rotation=0;" vertex="1" parent="1">
                    <mxGeometry x="475" y="845" width="80" height="40" as="geometry"/>
                </mxCell>
                <mxCell id="129" value="" style="endArrow=none;html=1;" edge="1" parent="1" source="14" target="123">
                    <mxGeometry width="50" height="50" relative="1" as="geometry">
                        <mxPoint x="460" y="1025" as="sourcePoint"/>
                        <mxPoint x="390" y="1025" as="targetPoint"/>
                    </mxGeometry>
                </mxCell>
                <mxCell id="130" value="" style="endArrow=none;html=1;" edge="1" parent="1" source="14" target="124">
                    <mxGeometry width="50" height="50" relative="1" as="geometry">
                        <mxPoint x="475.0000000000002" y="1005" as="sourcePoint"/>
                        <mxPoint x="431.2347523777212" y="1022.5060990489117" as="targetPoint"/>
                    </mxGeometry>
                </mxCell>
                <mxCell id="131" value="" style="endArrow=none;html=1;" edge="1" parent="1" source="14" target="125">
                    <mxGeometry width="50" height="50" relative="1" as="geometry">
                        <mxPoint x="485.0000000000002" y="1015" as="sourcePoint"/>
                        <mxPoint x="441.2347523777212" y="1032.5060990489117" as="targetPoint"/>
                    </mxGeometry>
                </mxCell>
                <mxCell id="132" value="" style="endArrow=none;html=1;" edge="1" parent="1" source="14" target="126">
                    <mxGeometry width="50" height="50" relative="1" as="geometry">
                        <mxPoint x="495.0000000000002" y="1025" as="sourcePoint"/>
                        <mxPoint x="451.2347523777212" y="1042.5060990489117" as="targetPoint"/>
                    </mxGeometry>
                </mxCell>
                <mxCell id="133" value="" style="endArrow=none;html=1;" edge="1" parent="1" source="14" target="127">
                    <mxGeometry width="50" height="50" relative="1" as="geometry">
                        <mxPoint x="505.0000000000002" y="1035" as="sourcePoint"/>
                        <mxPoint x="461.2347523777212" y="1052.5060990489117" as="targetPoint"/>
                    </mxGeometry>
                </mxCell>
                <mxCell id="134" value="" style="endArrow=none;html=1;" edge="1" parent="1" source="14" target="128">
                    <mxGeometry width="50" height="50" relative="1" as="geometry">
                        <mxPoint x="515.0000000000002" y="1045" as="sourcePoint"/>
                        <mxPoint x="471.2347523777212" y="1062.5060990489117" as="targetPoint"/>
                    </mxGeometry>
                </mxCell>
                <mxCell id="135" value="&lt;u&gt;Id_&lt;br&gt;equipamento&lt;/u&gt;" style="ellipse;whiteSpace=wrap;html=1;rotation=0;" vertex="1" parent="1">
                    <mxGeometry x="660" y="535" width="80" height="40" as="geometry"/>
                </mxCell>
                <mxCell id="140" value="" style="endArrow=none;html=1;" edge="1" parent="1" source="15" target="152">
                    <mxGeometry width="50" height="50" relative="1" as="geometry">
                        <mxPoint x="852.73" y="585" as="sourcePoint"/>
                        <mxPoint x="930.0000000000005" y="555" as="targetPoint"/>
                    </mxGeometry>
                </mxCell>
                <mxCell id="141" value="" style="endArrow=none;html=1;" edge="1" parent="1" source="15" target="135">
                    <mxGeometry width="50" height="50" relative="1" as="geometry">
                        <mxPoint x="862.73" y="595" as="sourcePoint"/>
                        <mxPoint x="862.73" y="650" as="targetPoint"/>
                    </mxGeometry>
                </mxCell>
                <mxCell id="152" value="Quant_total" style="ellipse;whiteSpace=wrap;html=1;rotation=0;" vertex="1" parent="1">
                    <mxGeometry x="900.23" y="590" width="80" height="40" as="geometry"/>
                </mxCell>
                <mxCell id="153" value="&lt;u&gt;Id_BO&lt;/u&gt;" style="ellipse;whiteSpace=wrap;html=1;rotation=0;" vertex="1" parent="1">
                    <mxGeometry x="555" y="20" width="80" height="40" as="geometry"/>
                </mxCell>
                <mxCell id="154" value="Nome" style="ellipse;whiteSpace=wrap;html=1;rotation=0;" vertex="1" parent="1">
                    <mxGeometry x="320.26" y="115" width="80" height="40" as="geometry"/>
                </mxCell>
                <mxCell id="156" value="EndereÃ§o" style="ellipse;whiteSpace=wrap;html=1;rotation=0;" vertex="1" parent="1">
                    <mxGeometry x="425" y="75" width="80" height="40" as="geometry"/>
                </mxCell>
                <mxCell id="157" value="Crime" style="ellipse;whiteSpace=wrap;html=1;rotation=0;" vertex="1" parent="1">
                    <mxGeometry x="330" y="35" width="80" height="40" as="geometry"/>
                </mxCell>
                <mxCell id="158" value="Vitima" style="ellipse;whiteSpace=wrap;html=1;rotation=0;" vertex="1" parent="1">
                    <mxGeometry x="465" y="15" width="80" height="40" as="geometry"/>
                </mxCell>
                <mxCell id="162" value="Caracteristica_&lt;br&gt;atutor_crime" style="ellipse;shape=doubleEllipse;whiteSpace=wrap;html=1;" vertex="1" parent="1">
                    <mxGeometry x="647.73" y="10" width="95" height="50" as="geometry"/>
                </mxCell>
                <mxCell id="163" value="Tipo_crime" style="ellipse;whiteSpace=wrap;html=1;rotation=0;" vertex="1" parent="1">
                    <mxGeometry x="687.73" y="80" width="80" height="40" as="geometry"/>
                </mxCell>
                <mxCell id="164" value="" style="endArrow=none;html=1;fontSize=11;fontColor=#000000;" edge="1" parent="1" source="154" target="21">
                    <mxGeometry width="50" height="50" relative="1" as="geometry">
                        <mxPoint x="270" y="135" as="sourcePoint"/>
                        <mxPoint x="320" y="85" as="targetPoint"/>
                    </mxGeometry>
                </mxCell>
                <mxCell id="165" value="" style="endArrow=none;html=1;fontSize=11;fontColor=#000000;" edge="1" parent="1" source="156" target="21">
                    <mxGeometry width="50" height="50" relative="1" as="geometry">
                        <mxPoint x="527.3542700678461" y="22.15294533214046" as="sourcePoint"/>
                        <mxPoint x="560.0000000000002" y="29" as="targetPoint"/>
                    </mxGeometry>
                </mxCell>
                <mxCell id="166" value="" style="endArrow=none;html=1;fontSize=11;fontColor=#000000;" edge="1" parent="1" source="157" target="156">
                    <mxGeometry width="50" height="50" relative="1" as="geometry">
                        <mxPoint x="537.3542700678461" y="32.15294533214046" as="sourcePoint"/>
                        <mxPoint x="570.0000000000002" y="39" as="targetPoint"/>
                    </mxGeometry>
                </mxCell>
                <mxCell id="167" value="" style="endArrow=none;html=1;fontSize=11;fontColor=#000000;" edge="1" parent="1" source="158" target="156">
                    <mxGeometry width="50" height="50" relative="1" as="geometry">
                        <mxPoint x="547.3542700678461" y="42.15294533214046" as="sourcePoint"/>
                        <mxPoint x="580.0000000000002" y="49" as="targetPoint"/>
                    </mxGeometry>
                </mxCell>
                <mxCell id="168" value="" style="endArrow=none;html=1;fontSize=11;fontColor=#000000;" edge="1" parent="1" source="21" target="162">
                    <mxGeometry width="50" height="50" relative="1" as="geometry">
                        <mxPoint x="557.3542700678461" y="52.15294533214046" as="sourcePoint"/>
                        <mxPoint x="590.0000000000002" y="59" as="targetPoint"/>
                    </mxGeometry>
                </mxCell>
                <mxCell id="169" value="" style="endArrow=none;html=1;fontSize=11;fontColor=#000000;" edge="1" parent="1" source="153" target="21">
                    <mxGeometry width="50" height="50" relative="1" as="geometry">
                        <mxPoint x="567.3542700678461" y="62.15294533214046" as="sourcePoint"/>
                        <mxPoint x="600.0000000000002" y="69" as="targetPoint"/>
                    </mxGeometry>
                </mxCell>
                <mxCell id="170" value="" style="endArrow=none;html=1;fontSize=11;fontColor=#000000;" edge="1" parent="1" source="163" target="21">
                    <mxGeometry width="50" height="50" relative="1" as="geometry">
                        <mxPoint x="577.3542700678461" y="72.15294533214046" as="sourcePoint"/>
                        <mxPoint x="610.0000000000002" y="79" as="targetPoint"/>
                    </mxGeometry>
                </mxCell>
                <mxCell id="171" value="&lt;u&gt;Id_celas&lt;/u&gt;" style="ellipse;whiteSpace=wrap;html=1;rotation=0;" vertex="1" parent="1">
                    <mxGeometry x="620" y="1025" width="80" height="40" as="geometry"/>
                </mxCell>
                <mxCell id="172" value="Capacidade" style="ellipse;whiteSpace=wrap;html=1;rotation=0;" vertex="1" parent="1">
                    <mxGeometry x="727.73" y="1025" width="80" height="40" as="geometry"/>
                </mxCell>
                <mxCell id="174" value="CondiÃ§Ã£o_atual" style="ellipse;whiteSpace=wrap;html=1;rotation=0;" vertex="1" parent="1">
                    <mxGeometry x="647.73" y="875" width="80" height="40" as="geometry"/>
                </mxCell>
                <mxCell id="176" value="" style="endArrow=none;html=1;" edge="1" parent="1" source="22" target="171">
                    <mxGeometry width="50" height="50" relative="1" as="geometry">
                        <mxPoint x="518.3178614049616" y="1005" as="sourcePoint"/>
                        <mxPoint x="501.52306387693466" y="1055.2677317722728" as="targetPoint"/>
                    </mxGeometry>
                </mxCell>
                <mxCell id="177" value="" style="endArrow=none;html=1;" edge="1" parent="1" source="22" target="172">
                    <mxGeometry width="50" height="50" relative="1" as="geometry">
                        <mxPoint x="528.3178614049616" y="1015" as="sourcePoint"/>
                        <mxPoint x="511.52306387693466" y="1065.2677317722728" as="targetPoint"/>
                    </mxGeometry>
                </mxCell>
                <mxCell id="178" value="" style="endArrow=none;html=1;" edge="1" parent="1" source="22" target="174">
                    <mxGeometry width="50" height="50" relative="1" as="geometry">
                        <mxPoint x="538.3178614049616" y="1025" as="sourcePoint"/>
                        <mxPoint x="521.5230638769347" y="1075.2677317722728" as="targetPoint"/>
                    </mxGeometry>
                </mxCell>
                <mxCell id="179" value="&lt;u&gt;Id_evidencias&lt;/u&gt;" style="ellipse;whiteSpace=wrap;html=1;rotation=0;" vertex="1" parent="1">
                    <mxGeometry x="840" y="1025" width="80" height="40" as="geometry"/>
                </mxCell>
                <mxCell id="180" value="Tipo" style="ellipse;whiteSpace=wrap;html=1;rotation=0;" vertex="1" parent="1">
                    <mxGeometry x="810" y="885" width="80" height="40" as="geometry"/>
                </mxCell>
                <mxCell id="181" value="Casos_&lt;br&gt;associados" style="ellipse;shape=doubleEllipse;whiteSpace=wrap;html=1;" vertex="1" parent="1">
                    <mxGeometry x="912.73" y="875" width="95" height="50" as="geometry"/>
                </mxCell>
                <mxCell id="183" value="" style="endArrow=none;html=1;fontSize=11;fontColor=#000000;" edge="1" parent="1" source="24" target="181">
                    <mxGeometry width="50" height="50" relative="1" as="geometry">
                        <mxPoint x="960" y="1055" as="sourcePoint"/>
                        <mxPoint x="1010" y="1005" as="targetPoint"/>
                    </mxGeometry>
                </mxCell>
                <mxCell id="184" value="" style="endArrow=none;html=1;fontSize=11;fontColor=#000000;" edge="1" parent="1" source="24" target="180">
                    <mxGeometry width="50" height="50" relative="1" as="geometry">
                        <mxPoint x="947.841230641558" y="965" as="sourcePoint"/>
                        <mxPoint x="967.5583073361029" y="933.7309236426602" as="targetPoint"/>
                    </mxGeometry>
                </mxCell>
                <mxCell id="185" value="" style="endArrow=none;html=1;fontSize=11;fontColor=#000000;" edge="1" parent="1" source="179" target="24">
                    <mxGeometry width="50" height="50" relative="1" as="geometry">
                        <mxPoint x="957.841230641558" y="975" as="sourcePoint"/>
                        <mxPoint x="977.5583073361029" y="943.7309236426602" as="targetPoint"/>
                    </mxGeometry>
                </mxCell>
                <mxCell id="186" value="&lt;u&gt;Id_registro&lt;/u&gt;" style="ellipse;whiteSpace=wrap;html=1;rotation=0;" vertex="1" parent="1">
                    <mxGeometry x="1022.73" y="1025" width="80" height="40" as="geometry"/>
                </mxCell>
                <mxCell id="187" value="Nome" style="ellipse;whiteSpace=wrap;html=1;rotation=0;" vertex="1" parent="1">
                    <mxGeometry x="1030" y="875" width="80" height="40" as="geometry"/>
                </mxCell>
                <mxCell id="188" value="Telefone" style="ellipse;whiteSpace=wrap;html=1;rotation=0;" vertex="1" parent="1">
                    <mxGeometry x="1130" y="865" width="80" height="40" as="geometry"/>
                </mxCell>
                <mxCell id="190" value="RelaÃ§Ã£o_caso" style="ellipse;shape=doubleEllipse;whiteSpace=wrap;html=1;" vertex="1" parent="1">
                    <mxGeometry x="1135" y="1020" width="95" height="50" as="geometry"/>
                </mxCell>
                <mxCell id="191" value="" style="endArrow=none;html=1;fontSize=11;fontColor=#000000;" edge="1" parent="1" source="25" target="188">
                    <mxGeometry width="50" height="50" relative="1" as="geometry">
                        <mxPoint x="1050.003333333333" y="965.72" as="sourcePoint"/>
                        <mxPoint x="1064.3400750735545" y="934.9984105566684" as="targetPoint"/>
                    </mxGeometry>
                </mxCell>
                <mxCell id="192" value="" style="endArrow=none;html=1;fontSize=11;fontColor=#000000;" edge="1" parent="1" source="25" target="187">
                    <mxGeometry width="50" height="50" relative="1" as="geometry">
                        <mxPoint x="1060.003333333333" y="975.72" as="sourcePoint"/>
                        <mxPoint x="1074.3400750735545" y="944.9984105566682" as="targetPoint"/>
                    </mxGeometry>
                </mxCell>
                <mxCell id="193" value="" style="endArrow=none;html=1;fontSize=11;fontColor=#000000;" edge="1" parent="1" source="186" target="25">
                    <mxGeometry width="50" height="50" relative="1" as="geometry">
                        <mxPoint x="1070.003333333333" y="985.72" as="sourcePoint"/>
                        <mxPoint x="1084.3400750735545" y="954.9984105566682" as="targetPoint"/>
                    </mxGeometry>
                </mxCell>
                <mxCell id="194" value="" style="endArrow=none;html=1;fontSize=11;fontColor=#000000;" edge="1" parent="1" source="190" target="25">
                    <mxGeometry width="50" height="50" relative="1" as="geometry">
                        <mxPoint x="1080.003333333333" y="995.72" as="sourcePoint"/>
                        <mxPoint x="1094.3400750735545" y="964.9984105566682" as="targetPoint"/>
                    </mxGeometry>
                </mxCell>
                <mxCell id="195" value="&lt;u&gt;Id_patrulha&lt;/u&gt;" style="ellipse;whiteSpace=wrap;html=1;rotation=0;" vertex="1" parent="1">
                    <mxGeometry x="1300" y="1035" width="80" height="40" as="geometry"/>
                </mxCell>
                <mxCell id="196" value="Horario" style="ellipse;whiteSpace=wrap;html=1;rotation=0;" vertex="1" parent="1">
                    <mxGeometry x="1220" y="880" width="80" height="40" as="geometry"/>
                </mxCell>
                <mxCell id="197" value="Agentes_&lt;br&gt;envolvidos" style="ellipse;shape=doubleEllipse;whiteSpace=wrap;html=1;rotation=0;" vertex="1" parent="1">
                    <mxGeometry x="1335" y="875" width="90" height="50" as="geometry"/>
                </mxCell>
                <mxCell id="198" value="Areas_cobertas" style="ellipse;shape=doubleEllipse;whiteSpace=wrap;html=1;" vertex="1" parent="1">
                    <mxGeometry x="1390" y="945" width="95" height="50" as="geometry"/>
                </mxCell>
                <mxCell id="199" value="" style="endArrow=none;html=1;fontSize=11;fontColor=#000000;" edge="1" parent="1" source="26" target="196">
                    <mxGeometry width="50" height="50" relative="1" as="geometry">
                        <mxPoint x="1145.1987906209351" y="965" as="sourcePoint"/>
                        <mxPoint x="1170.4114227800892" y="914.4168688703196" as="targetPoint"/>
                    </mxGeometry>
                </mxCell>
                <mxCell id="200" value="" style="endArrow=none;html=1;fontSize=11;fontColor=#000000;" edge="1" parent="1" source="26" target="197">
                    <mxGeometry width="50" height="50" relative="1" as="geometry">
                        <mxPoint x="1306.8145624191034" y="965" as="sourcePoint"/>
                        <mxPoint x="1282.649110640637" y="928.9736659609553" as="targetPoint"/>
                    </mxGeometry>
                </mxCell>
                <mxCell id="201" value="" style="endArrow=none;html=1;fontSize=11;fontColor=#000000;" edge="1" parent="1" source="26" target="198">
                    <mxGeometry width="50" height="50" relative="1" as="geometry">
                        <mxPoint x="1330" y="975" as="sourcePoint"/>
                        <mxPoint x="1292.649110640637" y="938.9736659609553" as="targetPoint"/>
                    </mxGeometry>
                </mxCell>
                <mxCell id="202" value="" style="endArrow=none;html=1;fontSize=11;fontColor=#000000;" edge="1" parent="1" source="195" target="26">
                    <mxGeometry width="50" height="50" relative="1" as="geometry">
                        <mxPoint x="1326.8145624191034" y="985" as="sourcePoint"/>
                        <mxPoint x="1302.649110640637" y="948.9736659609553" as="targetPoint"/>
                    </mxGeometry>
                </mxCell>
                <mxCell id="203" value="&lt;u&gt;Id_apreenssÃ£o&lt;/u&gt;" style="ellipse;whiteSpace=wrap;html=1;rotation=0;" vertex="1" parent="1">
                    <mxGeometry x="270.26" y="430" width="80" height="40" as="geometry"/>
                </mxCell>
                <mxCell id="204" value="" style="endArrow=none;html=1;" edge="1" parent="1" source="27" target="203">
                    <mxGeometry width="50" height="50" relative="1" as="geometry">
                        <mxPoint x="433.9809465968435" y="415" as="sourcePoint"/>
                        <mxPoint x="431.42229970001085" y="374.99155484018775" as="targetPoint"/>
                    </mxGeometry>
                </mxCell>
                <mxCell id="205" value="&lt;u&gt;Id_multa&lt;/u&gt;" style="ellipse;whiteSpace=wrap;html=1;rotation=0;" vertex="1" parent="1">
                    <mxGeometry x="240" y="225" width="80" height="40" as="geometry"/>
                </mxCell>
                <mxCell id="206" value="Valor" style="ellipse;whiteSpace=wrap;html=1;rotation=0;" vertex="1" parent="1">
                    <mxGeometry x="240" y="305" width="80" height="40" as="geometry"/>
                </mxCell>
                <mxCell id="207" value="Documento" style="ellipse;whiteSpace=wrap;html=1;rotation=0;" vertex="1" parent="1">
                    <mxGeometry x="340" y="210" width="80" height="40" as="geometry"/>
                </mxCell>
                <mxCell id="208" value="" style="endArrow=none;html=1;fontSize=11;fontColor=#000000;" edge="1" parent="1" source="205" target="28">
                    <mxGeometry width="50" height="50" relative="1" as="geometry">
                        <mxPoint x="310" y="175" as="sourcePoint"/>
                        <mxPoint x="360" y="125" as="targetPoint"/>
                    </mxGeometry>
                </mxCell>
                <mxCell id="209" value="" style="endArrow=none;html=1;fontSize=11;fontColor=#000000;" edge="1" parent="1" source="207" target="28">
                    <mxGeometry width="50" height="50" relative="1" as="geometry">
                        <mxPoint x="330" y="125" as="sourcePoint"/>
                        <mxPoint x="400" y="125" as="targetPoint"/>
                    </mxGeometry>
                </mxCell>
                <mxCell id="210" value="" style="endArrow=none;html=1;fontSize=11;fontColor=#000000;" edge="1" parent="1" source="206" target="28">
                    <mxGeometry width="50" height="50" relative="1" as="geometry">
                        <mxPoint x="340" y="135" as="sourcePoint"/>
                        <mxPoint x="410" y="135" as="targetPoint"/>
                    </mxGeometry>
                </mxCell>
            </root>
        </mxGraphModel>
    </diagram>
</mxfile>